<svg width="30" height="30" viewBox="0 0 30 30" fill="none" xmlns="http://www.w3.org/2000/svg">
<g id="bi:facebook" clip-path="url(#clip0_59_771)">
<path id="Vector" d="M29.9998 15.0919C29.9998 6.75563 23.2836 -0.00187492 14.9998 -0.00187492C6.71234 7.63685e-08 -0.00390625 6.75563 -0.00390625 15.0938C-0.00390625 22.6256 5.48234 28.8694 12.6523 30.0019V19.455H8.84609V15.0938H12.6561V11.7656C12.6561 7.98375 14.8967 5.895 18.3223 5.895C19.9648 5.895 21.6805 6.18937 21.6805 6.18937V9.90188H19.7886C17.9267 9.90188 17.3455 11.0662 17.3455 12.2606V15.0919H21.5042L20.8405 19.4531H17.3436V30C24.5136 28.8675 29.9998 22.6238 29.9998 15.0919Z" fill="#DCE5EC"/>
</g>
<defs>
<clipPath id="clip0_59_771">
<rect width="30" height="30" fill="white"/>
</clipPath>
</defs>
</svg>
