<svg width="30" height="30" viewBox="0 0 30 30" fill="none" xmlns="http://www.w3.org/2000/svg">
<circle cx="15" cy="15" r="15" fill="#DCE5EC"/>
<path d="M11.5003 6.66667H18.5003C21.167 6.66667 23.3337 8.83333 23.3337 11.5V18.5C23.3337 19.7819 22.8244 21.0113 21.918 21.9177C21.0116 22.8241 19.7822 23.3333 18.5003 23.3333H11.5003C8.83366 23.3333 6.66699 21.1667 6.66699 18.5V11.5C6.66699 10.2181 7.17622 8.98874 8.08264 8.08232C8.98907 7.17589 10.2184 6.66667 11.5003 6.66667ZM11.3337 8.33333C10.538 8.33333 9.77495 8.6494 9.21234 9.21201C8.64973 9.77462 8.33366 10.5377 8.33366 11.3333V18.6667C8.33366 20.325 9.67533 21.6667 11.3337 21.6667H18.667C19.4626 21.6667 20.2257 21.3506 20.7883 20.788C21.3509 20.2254 21.667 19.4623 21.667 18.6667V11.3333C21.667 9.675 20.3253 8.33333 18.667 8.33333H11.3337ZM19.3753 9.58333C19.6516 9.58333 19.9165 9.69308 20.1119 9.88843C20.3072 10.0838 20.417 10.3487 20.417 10.625C20.417 10.9013 20.3072 11.1662 20.1119 11.3616C19.9165 11.5569 19.6516 11.6667 19.3753 11.6667C19.0991 11.6667 18.8341 11.5569 18.6388 11.3616C18.4434 11.1662 18.3337 10.9013 18.3337 10.625C18.3337 10.3487 18.4434 10.0838 18.6388 9.88843C18.8341 9.69308 19.0991 9.58333 19.3753 9.58333ZM15.0003 10.8333C16.1054 10.8333 17.1652 11.2723 17.9466 12.0537C18.728 12.8351 19.167 13.8949 19.167 15C19.167 16.1051 18.728 17.1649 17.9466 17.9463C17.1652 18.7277 16.1054 19.1667 15.0003 19.1667C13.8953 19.1667 12.8354 18.7277 12.054 17.9463C11.2726 17.1649 10.8337 16.1051 10.8337 15C10.8337 13.8949 11.2726 12.8351 12.054 12.0537C12.8354 11.2723 13.8953 10.8333 15.0003 10.8333ZM15.0003 12.5C14.3373 12.5 13.7014 12.7634 13.2326 13.2322C12.7637 13.7011 12.5003 14.337 12.5003 15C12.5003 15.663 12.7637 16.2989 13.2326 16.7678C13.7014 17.2366 14.3373 17.5 15.0003 17.5C15.6634 17.5 16.2993 17.2366 16.7681 16.7678C17.2369 16.2989 17.5003 15.663 17.5003 15C17.5003 14.337 17.2369 13.7011 16.7681 13.2322C16.2993 12.7634 15.6634 12.5 15.0003 12.5Z" fill="url(#paint0_linear_59_767)"/>
<defs>
<linearGradient id="paint0_linear_59_767" x1="15.0003" y1="6.66667" x2="15.0003" y2="23.3333" gradientUnits="userSpaceOnUse">
<stop stop-color="#57A9AE"/>
<stop offset="1" stop-color="#4F2585"/>
</linearGradient>
</defs>
</svg>
