<svg width="77" height="60" viewBox="0 0 77 60" fill="none" xmlns="http://www.w3.org/2000/svg">
<g clip-path="url(#clip0_59_781)">
<path d="M60.5393 -47.2951C53.4386 -52.9518 44.4388 -53.8053 34.694 -49.9041C30.6435 -50.2368 26.3137 -49.528 21.8043 -47.7805C18.0594 -48.0016 14.0649 -47.3152 9.92444 -45.753C4.3159 -45.9503 -1.84498 -44.14 -8.24006 -40.2957C-19.6434 -33.4488 -30.4925 -20.9622 -38.7881 -5.13316C-47.0838 10.6959 -51.853 28.0319 -52.2229 43.6619C-52.606 59.6852 -48.3246 72.0954 -40.1693 78.5832C-35.4699 82.3244 -29.8483 83.8166 -23.681 83.0593C-22.2659 82.8856 -20.8212 82.5776 -19.3575 82.1741C-17.097 82.568 -14.7396 82.6237 -12.2954 82.3235C-10.6685 82.1238 -9.00016 81.7604 -7.30337 81.2536C-4.92137 81.6979 -2.42333 81.7736 0.16466 81.4558C2.0035 81.23 3.88674 80.8029 5.80153 80.1948C8.32232 80.706 10.96 80.7925 13.6993 80.4561C18.4137 79.8773 23.4127 78.0511 28.5353 74.9785C40.1899 67.9889 51.2477 55.2622 59.6934 39.1536C68.1314 23.0459 72.9898 5.3725 73.3721 -10.5948C73.7644 -27.3561 69.2062 -40.3944 60.5393 -47.2951ZM-26.871 73.4064C-41.6091 61.6646 -40.4313 26.9652 -24.2397 -3.94432C-15.2724 -21.059 -3.5607 -33.465 7.60834 -39.1545C-1.22043 -31.859 -9.41864 -21.3674 -16.0151 -8.77805C-24.4028 7.23952 -29.2369 24.798 -29.61 40.6522C-30.0013 57.1709 -25.5394 69.9879 -17.0431 76.751C-16.8812 76.8803 -16.7217 76.9913 -16.5598 77.1207C-16.67 77.1622 -16.7801 77.2037 -16.8902 77.2452C-20.5303 77.002 -23.9158 75.7669 -26.871 73.4064ZM-10.1265 73.7753C-11.5683 73.1689 -12.9342 72.3667 -14.2114 71.3483C-20.9799 65.9586 -24.5323 55.231 -24.1946 41.1531C-23.845 26.4209 -19.3016 9.99869 -11.3992 -5.09193C-3.53432 -20.1127 6.68212 -31.934 17.3864 -38.4059C9.78658 -31.2986 2.76649 -21.8469 -3.01992 -10.7933C-11.458 5.31437 -16.3164 22.9877 -16.6987 38.955C-17.038 53.145 -13.805 64.6487 -7.55225 72.0323C-8.40584 72.65 -9.26394 73.231 -10.1265 73.7753ZM-10.1892 39.5454C-9.84125 24.9254 -5.32324 8.60881 2.52988 -6.3825C8.6281 -18.0246 16.1413 -27.7141 24.1843 -34.4654C35.5322 -20.1809 33.383 11.7372 18.3742 40.3937C12.4378 51.7269 5.29449 60.9885 -2.10638 67.6516C-7.62766 62.0342 -10.4888 52.1823 -10.1892 39.5454ZM21.1502 42.6083C29.4459 26.7793 34.2151 9.44327 34.585 -6.18674C34.8931 -19.0672 32.18 -29.5901 26.8788 -36.6056C28.2226 -37.61 29.5841 -38.5326 30.9482 -39.3716C31.2511 -39.157 31.5604 -38.9524 31.858 -38.7185C46.5961 -26.9767 45.4183 7.72262 29.2267 38.6322C21.5729 53.2446 11.9081 64.4293 2.28999 70.9264C1.76508 70.6551 1.2606 70.3626 0.759184 70.0325C8.34984 63.0382 15.368 53.6334 21.1502 42.6083ZM-5.22245 74.9918C-5.11683 74.9136 -5.01235 74.8261 -4.89918 74.7469C-4.8557 74.7882 -4.81336 74.8203 -4.77101 74.8524C-4.87243 74.9022 -4.98142 74.9529 -5.08398 74.9935C-5.13695 75 -5.17591 74.9954 -5.22245 74.9918ZM12.2269 70.154C11.3977 70.6568 10.5692 71.1036 9.75242 71.521C18.4041 64.2846 26.4452 53.9521 32.9226 41.5826C41.2675 25.6542 46.0622 8.21247 46.4413 -7.53059C46.803 -22.8518 42.9474 -34.9226 35.5494 -41.8112C36.3426 -42.1697 37.1317 -42.4997 37.9025 -42.7902C40.0896 -42.1821 42.1284 -41.1547 43.9595 -39.6914C50.7279 -34.3017 54.2804 -23.5741 53.9427 -9.49621C53.5931 5.23596 49.0497 21.6582 41.1473 36.7488C33.2449 51.8394 22.9713 63.6958 12.2269 70.154ZM-38.4701 75.3435C-53.4634 63.3999 -52.3666 28.2908 -36.0121 -2.91855C-26.2798 -21.4981 -13.3048 -34.5629 -1.23246 -39.5892C-11.2211 -32.3565 -20.5796 -20.9296 -27.9345 -6.88552C-36.2794 9.04286 -41.0741 26.4846 -41.4531 42.2276C-41.836 58.5028 -37.4693 71.1076 -29.1423 77.7423C-28.4016 78.3322 -27.6234 78.8522 -26.8421 79.3345C-31.1063 79.3265 -35.0566 78.0581 -38.4701 75.3435ZM66.8615 -11.1944C66.5136 3.42569 61.9955 19.7422 54.1424 34.7335C46.3075 49.6853 36.1448 61.4441 25.5095 67.8516C33.0457 60.7894 40.0196 51.3993 45.7632 40.435C54.1509 24.4174 58.985 6.85892 59.3581 -8.99532C59.7381 -24.981 55.5525 -37.4868 47.5821 -44.4078C51.1333 -44.2003 54.3607 -43.0017 57.128 -40.7954C63.7335 -35.5442 67.1908 -25.0287 66.8615 -11.1944Z" fill="#DCE5EC"/>
</g>
<defs>
<clipPath id="clip0_59_781">
<rect width="77" height="60" fill="white"/>
</clipPath>
</defs>
</svg>
