<svg width="205" height="43" viewBox="0 0 205 43" fill="none" xmlns="http://www.w3.org/2000/svg">
<path d="M44.1974 9.63246H42.3182V24.5829H44.1974V9.63246ZM42.7629 27.5514C42.7629 27.3757 42.8366 27.2284 42.985 27.1151C43.1334 27.0018 43.3289 26.9452 43.5714 26.9452C43.9351 26.9452 44.271 27.0982 44.5809 27.4097L45.4295 26.3164C45.2142 26.0501 44.9378 25.8348 44.6013 25.6819C44.2642 25.5289 43.9209 25.4496 43.5714 25.4496C42.9918 25.4496 42.5142 25.6252 42.1369 25.9878C41.7596 26.3447 41.571 26.7923 41.571 27.3305C41.571 27.744 41.699 28.0953 41.9551 28.3785L41.9347 28.4805H41.1467V29.8741H45.5706V28.3615H44.177C43.2343 28.3615 42.7629 28.0896 42.7629 27.5514ZM36.4429 10.8335H36.7499C37.0632 10.8335 37.3153 10.7371 37.5062 10.5445C37.6971 10.3519 37.7923 10.063 37.7923 9.66643C37.7923 9.25854 37.6971 8.95833 37.5062 8.77704C37.3153 8.59009 37.0632 8.49943 36.7499 8.49943H36.4429C36.1296 8.49943 35.8809 8.59009 35.6962 8.77704C35.5126 8.95833 35.4209 9.25854 35.4209 9.66643C35.4209 10.063 35.5126 10.3519 35.6962 10.5445C35.8809 10.7371 36.1296 10.8335 36.4429 10.8335ZM38.8353 18.1302C38.7803 17.2464 38.5384 16.5383 38.1101 16.0114C37.6801 15.4902 37.1176 15.2296 36.4225 15.2296C35.7953 15.2296 35.2979 15.4166 34.9297 15.7905C34.562 16.1644 34.3779 16.6516 34.3779 17.2521C34.3779 17.728 34.5343 18.0792 34.8481 18.2945C35.1614 18.5098 35.6254 18.6231 36.2384 18.6231H36.648C37.2201 18.6231 37.6762 18.5778 38.0178 18.4984C38.3583 18.4191 38.6313 18.2945 38.8353 18.1302ZM39.5202 14.5101C40.2221 15.5752 40.5739 17.0481 40.5739 18.929C40.5739 20.045 40.4844 20.9741 40.3071 21.7162C40.1309 22.464 39.8476 23.0532 39.4596 23.4894C39.0709 23.9257 38.5764 24.2316 37.9764 24.4185C37.3765 24.5998 36.6542 24.6962 35.8095 24.6962H31.4128H30.0021C29.92 25.4043 29.7568 26.0558 29.511 26.6563C29.2657 27.2568 28.9286 27.7723 28.4992 28.2142C28.0692 28.6448 27.5412 28.9903 26.9146 29.2339C26.4507 29.4152 25.9221 29.5285 25.3318 29.5738V27.2568C25.738 27.2171 26.0977 27.1435 26.4031 27.0245C26.8665 26.8489 27.2415 26.5996 27.5282 26.2767C27.8143 25.9595 28.0188 25.5743 28.1411 25.121C28.2641 24.6735 28.3253 24.1693 28.3253 23.6084C28.3253 23.2402 28.3049 22.8606 28.2641 22.4641C28.2227 22.0675 28.1683 21.6766 28.1004 21.28L27.6709 18.8044L29.4294 18.4758L29.7161 20.198C29.7835 20.5889 29.8413 20.9741 29.89 21.3424C29.937 21.7106 29.9744 22.0561 30.0021 22.3847H31.9039H35.8095C36.8451 22.3847 37.6122 22.2148 38.1101 21.8749C38.607 21.5293 38.8557 20.9174 38.8557 20.0337V19.2576H38.7531C38.5492 19.7618 38.2251 20.1413 37.7827 20.4019C37.3391 20.6568 36.797 20.7872 36.1568 20.7872C35.0526 20.7872 34.1966 20.5039 33.5905 19.9317C32.9843 19.3595 32.6806 18.5608 32.6806 17.5354C32.6806 16.8952 32.7792 16.2947 32.9769 15.7282C33.1752 15.1616 33.4477 14.6688 33.795 14.2552C34.1428 13.8417 34.5547 13.5131 35.0322 13.2752C35.5087 13.0372 36.0339 12.9183 36.6066 12.9183C37.8467 12.9183 38.8183 13.4451 39.5202 14.5101ZM17.6878 18.8894C17.6878 18.2322 17.494 17.7053 17.1048 17.3144C16.7162 16.9178 16.2154 16.7196 15.6019 16.7196H15.377C14.7634 16.7196 14.2626 16.9178 13.8746 17.3144C13.4859 17.7053 13.2916 18.2322 13.2916 18.8894C13.2916 19.5409 13.4859 20.113 13.8746 20.6059C14.2626 21.0931 14.8048 21.5293 15.4999 21.9145C16.195 21.5293 16.7338 21.0931 17.115 20.6059C17.4969 20.113 17.6878 19.5409 17.6878 18.8894ZM24.6401 18.3341C24.8032 19.4275 24.8854 20.2829 24.8854 20.9118C24.8854 22.1921 24.5375 23.1439 23.8424 23.7614C23.1473 24.3846 22.0772 24.6962 20.6325 24.6962H19.7119H19.4666C18.7443 24.6962 18.0526 24.6111 17.3915 24.4355C16.7304 24.2656 16.0993 23.988 15.4999 23.5914C14.9136 23.988 14.2864 24.2656 13.6191 24.4355C12.9506 24.6111 12.2623 24.6962 11.5535 24.6962H10.327V24.6735L10.3061 24.6962C9.2971 24.6962 8.51701 24.5092 7.96466 24.1296C7.41287 23.7557 7.04803 23.1666 6.87128 22.3621H6.74778C6.58462 23.2062 6.28154 23.8067 5.83909 24.1636C5.39551 24.5148 4.71682 24.6962 3.80359 24.6962V24.6735L3.7832 24.6962H3.7628C2.42639 24.6962 1.46558 24.4186 0.879802 23.8634C0.293457 23.3138 0 22.3904 0 21.0931V9.56447H1.9018V20.9118C1.9018 21.484 2.03549 21.8749 2.30119 22.0788C2.56632 22.2828 3.0065 22.3847 3.61947 22.3847H4.29476H4.96949C6.10082 22.3847 6.6662 21.8465 6.6662 20.7702V17.66H8.44563V20.7702C8.44563 21.8465 8.97703 22.3847 10.0404 22.3847H10.8171H13.4553L13.4956 22.2828C12.2696 21.229 11.6555 19.9997 11.6555 18.5778C11.6555 18.0056 11.7479 17.4674 11.9314 16.9632C12.1155 16.459 12.3784 16.0171 12.7189 15.6375C13.0599 15.2523 13.4655 14.952 13.9357 14.7368C14.4059 14.5158 14.9271 14.4082 15.4999 14.4082C16.0721 14.4082 16.5938 14.5158 17.064 14.7368C17.5343 14.952 17.9365 15.2523 18.2702 15.6262C18.6044 16.0001 18.8661 16.442 19.0576 16.9575C19.2485 17.4674 19.3443 18.0056 19.3443 18.5778C19.3443 19.9827 18.7307 21.2177 17.5037 22.2828L17.5445 22.3847H20.2031H20.6325C21.5594 22.3847 22.2131 22.2771 22.5949 22.0675C22.9762 21.8579 23.1683 21.4726 23.1683 20.9118C23.1683 20.6795 23.1501 20.3849 23.1167 20.0337C23.0827 19.6768 23.0176 19.2066 22.9224 18.6231L22.5949 16.8442L24.3744 16.5553L24.6401 18.3341ZM17.0312 12.3234H17.3382C17.6515 12.3234 17.9036 12.2271 18.0945 12.0345C18.2855 11.8476 18.3812 11.553 18.3812 11.1564C18.3812 10.7485 18.2855 10.4539 18.0945 10.267C17.9036 10.0857 17.6515 9.99505 17.3382 9.99505H17.0312C16.7173 9.99505 16.4686 10.0857 16.2851 10.267C16.1004 10.4539 16.0086 10.7485 16.0086 11.1564C16.0086 11.553 16.1004 11.8476 16.2851 12.0345C16.4686 12.2271 16.7173 12.3234 17.0312 12.3234ZM13.8644 12.3234H14.1708C14.4841 12.3234 14.7362 12.2271 14.9271 12.0345C15.1181 11.8476 15.2138 11.553 15.2138 11.1564C15.2138 10.7485 15.1181 10.4539 14.9271 10.267C14.7362 10.0857 14.4841 9.99505 14.1708 9.99505H13.8644C13.5505 9.99505 13.3018 10.0857 13.1177 10.267C12.9336 10.4539 12.8418 10.7485 12.8418 11.1564C12.8418 11.553 12.9336 11.8476 13.1177 12.0345C13.3018 12.2271 13.5505 12.3234 13.8644 12.3234ZM132.462 12.1251H131.188C131.185 12.1251 131.183 12.1251 131.18 12.1251V12.0571H130.542C130.114 11.9552 129.896 11.7342 129.896 11.3887C129.896 11.2244 129.963 11.0941 130.099 10.9865C130.234 10.8845 130.413 10.8335 130.634 10.8335C130.966 10.8335 131.274 10.9751 131.558 11.2584L132.333 10.2613C132.135 10.012 131.883 9.8194 131.576 9.67777C131.269 9.53614 130.954 9.46815 130.634 9.46815C130.105 9.46815 129.668 9.62681 129.324 9.95539C128.979 10.284 128.807 10.6919 128.807 11.1847C128.807 11.5643 128.923 11.8872 129.158 12.1421L129.139 12.2328H128.419V13.5075H129.257V24.6962H131.18V13.5075H132.462V12.1251ZM120.338 14.4082H120.644C120.958 14.4082 121.21 14.3119 121.401 14.1249C121.591 13.9323 121.687 13.6377 121.687 13.2412C121.687 12.8333 121.591 12.5387 121.401 12.3517C121.21 12.1705 120.958 12.0798 120.644 12.0798H120.338C120.024 12.0798 119.775 12.1705 119.591 12.3517C119.408 12.5387 119.315 12.8333 119.315 13.2412C119.315 13.6377 119.408 13.9323 119.591 14.1249C119.775 14.3119 120.024 14.4082 120.338 14.4082ZM124.182 17.9206L119.643 16.7422C119.111 16.6063 118.726 16.5156 118.487 16.476C118.248 16.4363 118.04 16.4137 117.863 16.4137C117.209 16.4137 116.701 16.5949 116.34 16.9575C115.979 17.3201 115.798 17.8753 115.798 18.6117V20.198H117.618V18.5381L121.36 19.4615L124.509 20.1357V20.2377L123.098 20.9118C122.416 21.2404 121.796 21.501 121.237 21.6993C120.678 21.8975 120.133 22.0449 119.601 22.1468C119.07 22.2488 118.524 22.3168 117.966 22.3451C117.407 22.3678 116.793 22.3847 116.125 22.3847H115.124H114.346C113.283 22.3847 112.752 21.8465 112.752 20.7702V17.66H110.972V20.7702C110.972 21.8465 110.407 22.3847 109.275 22.3847H108.601H108.601H107.926C107.312 22.3847 106.873 22.2828 106.607 22.0788C106.341 21.8749 106.208 21.484 106.208 20.9118V9.56447H104.306V21.0931C104.306 22.3904 104.599 23.3138 105.186 23.8634C105.772 24.4186 106.733 24.6962 108.069 24.6962H108.09L108.11 24.6735V24.6962C109.023 24.6962 109.701 24.5148 110.144 24.1636C110.587 23.8067 110.89 23.2062 111.054 22.3621H111.177C111.354 23.1666 111.719 23.7557 112.271 24.1296C112.823 24.5092 113.604 24.6962 114.613 24.6962L114.633 24.6735V24.6962H116.125C116.752 24.6962 117.348 24.6735 117.915 24.6225C118.48 24.5771 119.063 24.4639 119.663 24.2939C120.262 24.1239 120.903 23.8803 121.585 23.5574C122.266 23.2402 123.044 22.804 123.916 22.2601L126.329 20.7475H127.924V18.4361H127.556C126.615 18.4361 125.49 18.2662 124.182 17.9206ZM111.995 26.594H111.689C111.374 26.594 111.126 26.6903 110.942 26.8715C110.758 27.0585 110.666 27.3531 110.666 27.761C110.666 28.1576 110.758 28.4521 110.942 28.6391C111.126 28.8317 111.374 28.928 111.689 28.928H111.995C112.308 28.928 112.561 28.8317 112.752 28.6391C112.942 28.4521 113.038 28.1576 113.038 27.761C113.038 27.3531 112.942 27.0585 112.752 26.8715C112.561 26.6903 112.308 26.594 111.995 26.594ZM102.621 18.4758L100.862 18.8044L101.291 21.28C101.359 21.6766 101.414 22.0675 101.455 22.4641C101.496 22.8606 101.516 23.2402 101.516 23.6084C101.516 24.1693 101.455 24.6735 101.333 25.121C101.21 25.5743 101.005 25.9595 100.719 26.2767C100.433 26.5996 100.058 26.8489 99.5942 27.0245C99.1308 27.2001 98.5518 27.2908 97.8567 27.2908H97.0794V29.6022H97.8771C98.8311 29.6022 99.6491 29.4492 100.331 29.1433C101.012 28.8374 101.571 28.4068 102.008 27.863C102.443 27.3191 102.761 26.6789 102.958 25.9538C103.156 25.223 103.255 24.4356 103.255 23.5914C103.255 22.651 103.139 21.518 102.907 20.198L102.621 18.4758ZM89.032 16.0454C89.032 16.442 89.1278 16.7309 89.3187 16.9235C89.509 17.1162 89.7611 17.2124 90.075 17.2124H90.3617C90.6749 17.2124 90.927 17.1162 91.1179 16.9235C91.3089 16.7309 91.4046 16.442 91.4046 16.0454C91.4046 15.6375 91.3089 15.3373 91.1179 15.156C90.927 14.969 90.6749 14.8784 90.3617 14.8784H90.075C89.7611 14.8784 89.509 14.969 89.3187 15.156C89.1278 15.3373 89.032 15.6375 89.032 16.0454ZM88.3392 13.9436H88.6457C88.9459 13.9436 89.1878 13.853 89.3714 13.6661C89.5561 13.4848 89.6478 13.1959 89.6478 12.7993C89.6478 12.4027 89.5561 12.1195 89.3714 11.9382C89.1878 11.7626 88.9459 11.6719 88.6457 11.6719H88.3392C88.0395 11.6719 87.7942 11.7626 87.6033 11.9382C87.4118 12.1195 87.3166 12.4027 87.3166 12.7993C87.3166 13.1959 87.4118 13.4848 87.6033 13.6661C87.7942 13.853 88.0395 13.9436 88.3392 13.9436ZM86.6039 17.2124H86.9104C87.2237 17.2124 87.4758 17.1162 87.6667 16.9235C87.8577 16.7309 87.9528 16.442 87.9528 16.0454C87.9528 15.6375 87.8577 15.3373 87.6667 15.156C87.4758 14.969 87.2237 14.8784 86.9104 14.8784H86.6039C86.2895 14.8784 86.0414 14.969 85.8567 15.156C85.6732 15.3373 85.5808 15.6375 85.5808 16.0454C85.5808 16.442 85.6732 16.7309 85.8567 16.9235C86.0414 17.1162 86.2895 17.2124 86.6039 17.2124ZM75.4781 22.3847C75.4237 22.2771 75.3756 22.1582 75.3348 22.0335C75.2934 21.9146 75.2464 21.7842 75.1915 21.6483L74.1077 18.742L72.8807 19.3596C72.3351 19.6315 71.8887 19.9204 71.542 20.2263C71.1941 20.5322 71.0202 20.8608 71.0202 21.2177C71.0202 21.6256 71.1834 21.9259 71.5108 22.1072C71.8377 22.2941 72.3085 22.3847 72.922 22.3847H75.4781ZM93.7783 20.2773C93.8055 20.6456 93.8197 20.9798 93.8197 21.28C93.8197 22.481 93.5636 23.3875 93.0526 24.0106C92.541 24.6281 91.7808 24.9397 90.7729 24.9397C89.8999 24.9397 89.2252 24.7414 88.7482 24.3392C88.2712 23.9426 87.9574 23.3365 87.8078 22.5264H87.6849C87.4532 24.1353 86.6963 24.9397 85.4148 24.9397C85.02 24.9397 84.6143 24.8661 84.1985 24.7131C83.7821 24.5658 83.2887 24.3222 82.7165 23.9767L82.1641 23.6537C81.7682 24.073 81.3082 24.3562 80.7836 24.4922C80.259 24.6281 79.5944 24.6962 78.7906 24.6962C78.0399 24.6962 77.4473 24.5829 77.0117 24.3562C76.5749 24.1296 76.1931 23.7387 75.8662 23.1835L75.7438 23.2005V24.6962H73.2285C72.3153 24.6962 71.5686 24.5432 70.9896 24.2316C70.4101 23.9257 69.9908 23.4895 69.7319 22.9173H69.609C69.4181 23.5291 69.1456 23.9766 68.7915 24.2656C68.4363 24.5488 67.9531 24.6962 67.3395 24.6962V24.6735L67.3192 24.6962H67.2982C65.9623 24.6962 65.0015 24.4186 64.4152 23.8634C63.8289 23.3138 63.536 22.3904 63.536 21.0931V9.56447H65.4378V20.9118C65.4378 21.484 65.5703 21.8749 65.8372 22.0788C66.1023 22.2828 66.5419 22.3847 67.1554 22.3847H67.8301H67.8307C68.2528 22.3847 68.5899 22.3678 68.8425 22.3451C69.0946 22.3168 69.3156 22.2544 69.5065 22.1581C69.4663 21.9428 69.4459 21.6993 69.4459 21.4443C69.4459 20.6795 69.6872 19.977 70.1716 19.3369C70.6554 18.6967 71.3816 18.0679 72.3498 17.456L73.4738 16.7592H75.5387L77.0729 20.8722C77.1816 21.1724 77.2904 21.4217 77.4003 21.6143C77.5085 21.8126 77.6281 21.9655 77.7578 22.0788C77.8869 22.1865 78.0337 22.2658 78.1974 22.3111C78.3611 22.3621 78.5577 22.3847 78.7906 22.3847H79.2812H79.6902C79.9763 22.3847 80.2278 22.3621 80.4465 22.3224C80.6646 22.2828 80.8555 22.2091 81.0187 22.0958C81.1829 21.9882 81.3325 21.8466 81.4685 21.6709C81.605 21.4897 81.7415 21.2687 81.8781 20.9911L82.7165 19.2972L84.2501 20.0733L83.3091 21.8919L83.4524 21.9769C83.8614 22.2091 84.2569 22.3734 84.6381 22.4754C85.02 22.5774 85.408 22.6284 85.8035 22.6284C86.417 22.6284 86.8668 22.4924 87.1535 22.2148C87.4396 21.9372 87.5829 21.45 87.5829 20.7589V19.2972H89.3617V20.7759C89.3617 21.45 89.4643 21.9259 89.6682 22.2091C89.8727 22.4867 90.1934 22.6284 90.6291 22.6284H90.9361C91.7134 22.6284 92.1014 22.1865 92.1014 21.2914C92.1014 20.8551 92.0408 20.2263 91.9173 19.4049L91.7343 18.3171L93.4922 18.0509L93.6554 19.1103C93.7103 19.5238 93.7511 19.9091 93.7783 20.2773ZM59.6644 23.1382C59.6644 23.8747 59.61 24.4979 59.5007 25.0134C59.3919 25.5232 59.2083 25.9368 58.9489 26.2484C58.6905 26.56 58.3563 26.7866 57.9473 26.9226C57.5382 27.0585 57.0403 27.1265 56.4545 27.1265H55.0433C54.0349 27.1265 53.2441 26.8546 52.6719 26.3107C52.0991 25.7612 51.813 24.9964 51.813 23.9993C51.813 23.5064 51.8946 22.957 52.0583 22.3451C52.2221 21.7276 52.4328 21.1384 52.6923 20.5662L51.1383 20.096C50.8375 20.8042 50.6024 21.5237 50.4324 22.2601C50.2619 22.9966 50.1769 23.6707 50.1769 24.2826C50.1769 25.9764 50.6573 27.2851 51.6187 28.2142C52.5795 29.1376 53.9528 29.6022 55.7384 29.6022C57.7428 29.6022 59.218 29.081 60.1658 28.0386C61.113 26.9962 61.5866 25.3646 61.5866 23.1382V9.56447H59.6644V23.1382ZM23.3428 26.594H23.0357C22.7224 26.594 22.4737 26.6903 22.2896 26.8715C22.106 27.0585 22.0137 27.3531 22.0137 27.761C22.0137 28.1576 22.106 28.4521 22.2896 28.6391C22.4737 28.8317 22.7224 28.928 23.0357 28.928H23.3428C23.656 28.928 23.9081 28.8317 24.099 28.6391C24.29 28.4521 24.3857 28.1576 24.3857 27.761C24.3857 27.3531 24.29 27.0585 24.099 26.8715C23.9081 26.6903 23.656 26.594 23.3428 26.594ZM20.1754 26.594H19.8689C19.555 26.594 19.3069 26.6903 19.1222 26.8715C18.9386 27.0585 18.8463 27.3531 18.8463 27.761C18.8463 28.1576 18.9386 28.4521 19.1222 28.6391C19.3069 28.8317 19.555 28.928 19.8689 28.928H20.1754C20.4892 28.928 20.7413 28.8317 20.9322 28.6391C21.1231 28.4521 21.2183 28.1576 21.2183 27.761C21.2183 27.3531 21.1231 27.0585 20.9322 26.8715C20.7413 26.6903 20.4892 26.594 20.1754 26.594ZM9.14075 26.594H8.83369C8.52041 26.594 8.27171 26.6903 8.08759 26.8715C7.90347 27.0585 7.8117 27.3531 7.8117 27.761C7.8117 28.1576 7.90347 28.4521 8.08759 28.6391C8.27171 28.8317 8.52041 28.928 8.83369 28.928H9.14075C9.45403 28.928 9.70613 28.8317 9.89705 28.6391C10.0874 28.4521 10.1831 28.1576 10.1831 27.761C10.1831 27.3531 10.0874 27.0585 9.89705 26.8715C9.70613 26.6903 9.45403 26.594 9.14075 26.594ZM6.73022 26.8715C6.92113 27.0585 7.01631 27.3531 7.01631 27.761C7.01631 28.1576 6.92113 28.4521 6.73022 28.6391C6.5393 28.8317 6.2872 28.928 5.97392 28.928H5.66743C5.35302 28.928 5.10489 28.8317 4.9202 28.6391C4.73665 28.4521 4.64431 28.1576 4.64431 27.761C4.64431 27.3531 4.73665 27.0585 4.9202 26.8715C5.10489 26.6903 5.35302 26.594 5.66743 26.594H5.97392C6.2872 26.594 6.5393 26.6903 6.73022 26.8715Z" fill="#DCE5EC"/>
<path d="M132.431 39.3491C132.317 39.1125 132.137 38.8978 131.892 38.7107C131.647 38.5181 131.262 38.3145 130.736 38.0943C130.269 37.9017 129.946 37.7476 129.767 37.632C129.587 37.5109 129.459 37.3899 129.38 37.2578C129.302 37.1257 129.263 36.9661 129.263 36.779C129.263 36.5093 129.36 36.2892 129.557 36.1241C129.753 35.959 130.04 35.8765 130.419 35.8765C130.918 35.8765 131.486 36.014 132.122 36.2782L132.494 35.3261C131.815 35.0234 131.133 34.8748 130.448 34.8748C129.733 34.8748 129.163 35.0454 128.738 35.3866C128.314 35.7334 128.102 36.2012 128.102 36.801C128.102 37.2743 128.236 37.6816 128.504 38.0228C128.772 38.364 129.231 38.6667 129.885 38.9309C130.518 39.184 130.935 39.4042 131.138 39.5913C131.34 39.7784 131.442 40.004 131.442 40.2682C131.442 40.5654 131.332 40.802 131.111 40.9781C130.891 41.1542 130.548 41.2423 130.085 41.2423C129.769 41.2423 129.427 41.1982 129.059 41.1102C128.692 41.0221 128.345 40.9011 128.018 40.7525V41.8586C128.535 42.1063 129.197 42.2329 130.007 42.2329C130.816 42.2329 131.452 42.0513 131.912 41.6881C132.372 41.3303 132.602 40.8295 132.602 40.1911C132.602 39.8664 132.545 39.5857 132.431 39.3491ZM124.696 39.14C124.509 39.8609 124.392 40.4553 124.343 40.9231C124.216 40.1471 124.095 39.5693 123.981 39.1785L122.785 34.9739H121.625L120.46 39.1565C120.401 39.3711 120.336 39.6463 120.264 39.993C120.192 40.3342 120.138 40.6424 120.102 40.9231C120.033 40.4112 119.919 39.8169 119.76 39.151L118.736 34.9739H117.541L118.481 38.5511L119.407 42.1338H120.68L121.865 37.8852C121.914 37.7201 121.975 37.4725 122.049 37.1423C122.122 36.8065 122.175 36.5368 122.208 36.3277C122.224 36.4653 122.271 36.7075 122.35 37.0597C122.429 37.4119 122.493 37.6816 122.546 37.8632L123.76 42.1338H125.033L126.899 34.9739H125.714L124.696 39.14ZM112.268 42.1338H116.318V41.1432H113.439V38.8923H116.137V37.9127H113.439V35.9645H116.318V34.9739H112.268V42.1338ZM108.744 38.7272C108.744 38.9914 108.754 39.3601 108.774 39.8334C108.793 40.3012 108.806 40.5764 108.813 40.6534H108.783L105.273 34.9739H103.852V42.1338H104.915V38.4135C104.915 37.9127 104.892 37.3569 104.846 36.7515L104.822 36.4323H104.861L108.382 42.1338H109.816V34.9739H108.744V38.7272ZM96.9115 39.14L96.2406 37.1917C96.1911 37.0597 96.124 36.856 96.0376 36.5754C95.9511 36.2947 95.8912 36.0856 95.8587 35.9535C95.7701 36.3552 95.6419 36.7955 95.4718 37.2743L94.8257 39.14H96.9115ZM96.4998 34.9464L99.1783 42.1338H97.9351L97.2197 40.1471H94.4823L93.7823 42.1338H92.5484L95.2269 34.9464H96.4998ZM89.6211 35.8765C89.9183 35.8765 90.2017 35.9205 90.4708 36.0085C90.74 36.0966 90.9959 36.1956 91.2375 36.3112L91.6585 35.3316C91.0382 35.0289 90.3624 34.8748 89.631 34.8748C88.9359 34.8748 88.3306 35.0234 87.8143 35.3206C87.2987 35.6178 86.9041 36.0415 86.6317 36.6029C86.3587 37.1587 86.2227 37.8136 86.2227 38.5566C86.2227 39.7398 86.5034 40.6479 87.0653 41.2808C87.6261 41.9192 88.4313 42.2329 89.4797 42.2329C90.1913 42.2329 90.828 42.1283 91.3894 41.9137V40.9121C91.0823 41.0057 90.7867 41.0827 90.5028 41.1432C90.2188 41.2037 89.9255 41.2368 89.6211 41.2368C88.9194 41.2368 88.3834 41.0111 88.0125 40.5599C87.6421 40.1086 87.4566 39.4426 87.4566 38.5676C87.4566 37.7256 87.6492 37.0707 88.035 36.5919C88.4203 36.1186 88.9486 35.8765 89.6211 35.8765ZM82.9532 42.1338H84.1238V34.9739H82.9532V42.1338ZM79.1503 38.0008C79.3952 37.8026 79.5174 37.5 79.5174 37.1037C79.5174 36.6965 79.3853 36.4048 79.1206 36.2287C78.857 36.0525 78.4585 35.9645 77.9258 35.9645H77.152V38.3089H77.9649C78.5103 38.3089 78.9054 38.2044 79.1503 38.0008ZM79.3314 38.9693L81.3539 42.1338H80.022L78.3077 39.2776H77.152V42.1338H75.9814V34.9739H78.0039C78.928 34.9739 79.612 35.15 80.0562 35.4967C80.4997 35.8434 80.7221 36.3662 80.7221 37.0652C80.7221 37.9512 80.2581 38.5896 79.3314 38.9693ZM70.0829 42.1338H71.243V39.2005H73.9419V38.2044H71.243V35.9645H74.1224V34.9739H70.0829V42.1338ZM66.3086 39.14L65.6378 37.1917C65.5882 37.0597 65.5211 36.856 65.4347 36.5754C65.3477 36.2947 65.2883 36.0856 65.2558 35.9535C65.1678 36.3552 65.039 36.7955 64.8689 37.2743L64.2228 39.14H66.3086ZM65.897 34.9464L68.5755 42.1338H67.3323L66.6168 40.1471H63.8794L63.1794 42.1338H61.9455L64.624 34.9464H65.897ZM56.1994 38.7272C56.1994 38.9914 56.2099 39.3601 56.2291 39.8334C56.2484 40.3012 56.2616 40.5764 56.2682 40.6534H56.2385L52.7278 34.9739H51.3074V42.1338H52.3701V38.4135C52.3701 37.9127 52.3475 37.3569 52.3019 36.7515L52.2766 36.4323H52.3162L55.8373 42.1338H57.272V34.9739H56.1994V38.7272ZM47.5045 38.0008C47.7489 37.8026 47.8716 37.5 47.8716 37.1037C47.8716 36.6965 47.7395 36.4048 47.4743 36.2287C47.2101 36.0525 46.8122 35.9645 46.28 35.9645H45.5062V38.3089H46.3185C46.8639 38.3089 47.2591 38.2044 47.5045 38.0008ZM47.6851 38.9693L49.7076 42.1338H48.3757L46.662 39.2776H45.5062V42.1338H44.3357V34.9739H46.3576C47.2822 34.9739 47.9663 35.15 48.4104 35.4967C48.854 35.8434 49.0763 36.3662 49.0763 37.0652C49.0763 37.9512 48.6124 38.5896 47.6851 38.9693ZM38.1773 42.1338H42.2268V41.1432H39.3474V38.8923H42.0457V37.9127H39.3474V35.9645H42.2268V34.9739H38.1773V42.1338ZM34.555 37.9072H31.2546V34.9739H30.084V42.1338H31.2546V38.9088H34.555V42.1338H35.73V34.9739H34.555V37.9072ZM23.044 35.981H25.1496V42.1338H26.3197V35.981H28.4253V34.9739H23.044V35.981ZM20.0436 38.0008C20.2885 37.8026 20.4112 37.5 20.4112 37.1037C20.4112 36.6965 20.2786 36.4048 20.0144 36.2287C19.7497 36.0525 19.3512 35.9645 18.8196 35.9645H18.0458V38.3089H18.8587C19.4035 38.3089 19.7987 38.2044 20.0436 38.0008ZM20.2246 38.9693L22.2471 42.1338H20.9153L19.201 39.2776H18.0458V42.1338H16.8753V34.9739H18.8978C19.8218 34.9739 20.5053 35.15 20.9494 35.4967C21.3936 35.8434 21.6154 36.3662 21.6154 37.0652C21.6154 37.9512 21.1514 38.5896 20.2246 38.9693ZM13.5325 38.5456C13.5325 37.6706 13.3564 37.0046 13.0058 36.5478C12.6547 36.0966 12.1319 35.8654 11.4368 35.8654C10.7351 35.8654 10.2046 36.0966 9.84739 36.5478C9.49021 37.0046 9.31135 37.6706 9.31135 38.5456C9.31135 39.4262 9.48912 40.0976 9.84519 40.5544C10.2013 41.0057 10.7279 41.2368 11.4269 41.2368C12.1225 41.2368 12.647 41.0111 13.0014 40.5599C13.3553 40.1086 13.5325 39.4372 13.5325 38.5456ZM13.9045 35.8269C14.4851 36.4708 14.7763 37.3789 14.7763 38.5456C14.7763 39.7123 14.4851 40.6204 13.9023 41.2643C13.3195 41.9082 12.494 42.2329 11.4269 42.2329C10.346 42.2329 9.51608 41.9137 8.93657 41.2698C8.35706 40.6314 8.06758 39.7178 8.06758 38.5346C8.06758 37.3569 8.35871 36.4488 8.94152 35.8159C9.52489 35.183 10.3554 34.8638 11.4368 34.8638C12.5011 34.8638 13.3234 35.183 13.9045 35.8269ZM4.89596 34.9739H5.96803V42.1338H4.53329L1.0122 36.4323H0.97312L0.99789 36.7515C1.04302 37.3569 1.06613 37.9127 1.06613 38.4135V42.1338H0.00341797V34.9739H1.42385L4.93503 40.6534H4.9642C4.95705 40.5764 4.94439 40.3012 4.92513 39.8334C4.90587 39.3601 4.89596 38.9914 4.89596 38.7272V34.9739Z" fill="#DCE5EC"/>
<path d="M178.266 21.5919C178.16 21.5747 178.049 21.5632 177.932 21.5632H177.395C176.928 21.5632 176.548 21.7066 176.252 21.9934C175.956 22.2802 175.808 22.739 175.808 23.3642C175.808 23.9951 175.956 24.4482 176.252 24.735C176.548 25.0218 176.928 25.1651 177.395 25.1651H177.932C178.049 25.1651 178.16 25.1594 178.266 25.1422C178.372 25.1192 178.473 25.0963 178.568 25.0619C178.758 24.9873 178.927 24.8784 179.075 24.735C179.371 24.4482 179.519 23.9951 179.519 23.3642C179.519 22.739 179.371 22.2802 179.075 21.9934C178.927 21.85 178.758 21.741 178.568 21.6722C178.473 21.6378 178.372 21.6091 178.266 21.5919ZM179.938 20.8234H180.476C180.592 20.8234 180.704 20.8119 180.81 20.7947C181.021 20.7603 181.212 20.6857 181.381 20.5768C181.466 20.5251 181.545 20.462 181.619 20.3932C181.692 20.3187 181.758 20.2384 181.813 20.1466C181.868 20.0491 181.914 19.9459 181.951 19.8312C182.026 19.6075 182.063 19.3321 182.063 19.0224C182.063 18.707 182.026 18.4374 181.951 18.208C181.914 18.0933 181.868 17.99 181.813 17.8983C181.758 17.8008 181.692 17.7205 181.619 17.6459C181.545 17.5771 181.466 17.514 181.381 17.4624C181.212 17.3534 181.021 17.2788 180.81 17.2444C180.704 17.2272 180.592 17.2157 180.476 17.2157H179.938C179.822 17.2157 179.71 17.2272 179.605 17.2444C179.393 17.2788 179.202 17.3534 179.033 17.4624C178.949 17.514 178.869 17.5771 178.795 17.6459C178.5 17.9327 178.352 18.3915 178.352 19.0224C178.352 19.6476 178.5 20.1064 178.795 20.3932C178.869 20.462 178.949 20.5251 179.033 20.5768C179.202 20.6857 179.393 20.7603 179.605 20.7947C179.71 20.8119 179.822 20.8234 179.938 20.8234ZM182.148 25.1422C182.254 25.1594 182.365 25.1651 182.482 25.1651H183.02C183.486 25.1651 183.866 25.0218 184.162 24.735C184.458 24.4482 184.606 23.9951 184.606 23.3642C184.606 22.739 184.458 22.2802 184.162 21.9934C183.866 21.7066 183.486 21.5632 183.02 21.5632H182.482C182.365 21.5632 182.254 21.5747 182.148 21.5919C181.83 21.6435 181.561 21.7812 181.339 21.9934C181.043 22.2802 180.895 22.739 180.895 23.3642C180.895 23.9951 181.043 24.4482 181.339 24.735C181.561 24.9529 181.83 25.0848 182.148 25.1422ZM198.285 16.2694C197.957 16.906 197.514 17.4681 196.983 17.9384C201.121 22.0737 202.856 26.5015 201.871 30.459C200.856 34.5254 197.058 37.6857 191.175 39.3605C190.815 39.4637 190.45 39.5612 190.081 39.6472C189.955 39.6816 189.827 39.7046 189.7 39.7333C189.455 39.7906 189.208 39.8479 188.959 39.8996C188.804 39.9282 188.647 39.9569 188.491 39.9856C188.266 40.0315 188.04 40.0716 187.812 40.1118C187.641 40.1405 187.468 40.1634 187.295 40.1921C187.08 40.2208 186.862 40.2552 186.644 40.2838C186.46 40.3068 186.276 40.3297 186.09 40.3469C185.88 40.3756 185.669 40.3985 185.457 40.4157C185.262 40.433 185.067 40.4559 184.871 40.4731C184.666 40.4846 184.462 40.5018 184.257 40.5133C184.049 40.5247 183.843 40.5419 183.633 40.5534C183.445 40.5592 183.255 40.5649 183.064 40.5706C182.837 40.5821 182.61 40.5878 182.38 40.5936C182.321 40.5936 182.261 40.5936 182.202 40.5936C181.568 40.605 180.928 40.5993 180.281 40.5763C180.175 40.5706 180.07 40.5706 179.964 40.5706C179.676 40.5591 179.387 40.5419 179.098 40.5247C178.964 40.5133 178.829 40.5075 178.693 40.5018C178.408 40.4788 178.12 40.4559 177.832 40.4329C177.694 40.4215 177.556 40.41 177.418 40.3986C177.128 40.3699 176.836 40.3355 176.543 40.3068C176.409 40.2896 176.275 40.2724 176.141 40.2552C175.841 40.2208 175.541 40.1806 175.24 40.1405C175.118 40.1232 174.996 40.106 174.873 40.0888C174.558 40.0372 174.243 39.9913 173.928 39.9397C173.834 39.9225 173.739 39.9053 173.645 39.8881C173.3 39.8307 172.955 39.7676 172.609 39.6988C172.9 39.4407 173.16 39.1425 173.39 38.8156C173.39 38.8156 173.391 38.8155 173.392 38.8098C173.505 38.6492 173.611 38.4772 173.709 38.2994C173.715 38.2879 173.72 38.2764 173.725 38.2707C173.818 38.0986 173.905 37.9208 173.985 37.7373C173.997 37.7086 174.006 37.6742 174.018 37.6455C174.089 37.4792 174.156 37.3014 174.216 37.1178C174.234 37.0605 174.248 36.9974 174.266 36.9401C174.314 36.7795 174.363 36.6188 174.403 36.4468C174.428 36.3378 174.447 36.2231 174.469 36.1084C174.495 35.9822 174.523 35.8503 174.544 35.7184C174.584 35.4661 174.615 35.208 174.639 34.9441C174.64 34.9384 174.64 34.9326 174.641 34.9269H175.609C176.066 34.9269 176.481 34.8581 176.852 34.7204C177.039 34.6516 177.214 34.5713 177.378 34.468C177.543 34.3648 177.697 34.2444 177.841 34.1067C178.271 33.6995 178.58 33.1088 178.769 32.3402C178.831 32.0821 178.88 31.8068 178.917 31.5143H179.078C179.136 31.8297 179.207 32.128 179.291 32.4033C179.459 32.9596 179.679 33.43 179.95 33.8142C180.086 34.0092 180.234 34.1813 180.395 34.3361C180.476 34.4107 180.561 34.4853 180.652 34.5484C180.833 34.686 181.033 34.795 181.254 34.8925C181.804 35.1334 182.477 35.2481 183.273 35.2481C183.817 35.2481 184.308 35.185 184.745 35.0531C185.037 34.9613 185.305 34.8466 185.548 34.6975C185.914 34.4795 186.227 34.1927 186.486 33.8371C186.572 33.7224 186.653 33.5963 186.728 33.4586C187.03 32.9252 187.246 32.2542 187.375 31.4512C187.441 31.044 187.484 30.6138 187.504 30.1435C187.516 29.9084 187.521 29.6675 187.521 29.4151C187.521 28.9505 187.503 28.486 187.467 28.0271C187.431 27.574 187.368 27.0865 187.279 26.5646L187.064 25.1938L184.133 25.6756L184.255 26.3638L184.374 27.0464C184.464 27.6027 184.537 28.073 184.59 28.463C184.631 28.7498 184.656 29.0022 184.665 29.2144C184.669 29.2832 184.671 29.352 184.671 29.4151C184.671 29.57 184.663 29.7076 184.649 29.8396C184.604 30.2353 184.496 30.5393 184.321 30.7458C184.146 30.9522 183.931 31.0841 183.676 31.1358C183.591 31.153 183.501 31.1644 183.407 31.1644H183.138C183.026 31.1644 182.92 31.153 182.82 31.13C182.519 31.067 182.271 30.9063 182.076 30.654C182.011 30.5679 181.954 30.4705 181.905 30.3558C181.759 30.0231 181.686 29.5757 181.686 29.0136V27.3159H178.728V29.0136C178.728 29.7134 178.571 30.2009 178.258 30.4762C178.219 30.5106 178.176 30.545 178.128 30.5737C178.034 30.6368 177.925 30.6884 177.801 30.7286C177.676 30.7744 177.536 30.8088 177.381 30.8375C177.303 30.849 177.222 30.8604 177.136 30.8662C176.965 30.8834 176.779 30.8949 176.577 30.8949H174.453L174.264 29.7936L173.338 25.6928L171.886 25.9738L170.434 26.2549L171.387 30.3844C171.513 30.958 171.62 31.5201 171.71 32.0764C171.777 32.4951 171.819 32.8678 171.836 33.2062C171.842 33.3209 171.845 33.4242 171.845 33.5275C171.845 34.7491 171.531 35.6381 170.903 36.2059C170.275 36.768 169.29 37.049 167.946 37.049H165.794C165.25 37.049 164.751 37.0089 164.297 36.9171C163.692 36.8024 163.167 36.6074 162.724 36.3321C162.613 36.2632 162.507 36.1887 162.406 36.1084C162.104 35.8733 161.858 35.6037 161.669 35.2997C161.354 34.795 161.196 34.1985 161.196 33.5045C161.196 33.2407 161.222 32.9654 161.274 32.6729C161.325 32.3803 161.403 32.0706 161.506 31.7437C161.609 31.411 161.731 31.0784 161.872 30.7286C161.942 30.5565 162.018 30.3787 162.098 30.2009C162.178 30.0231 163.01 28.1017 163.1 27.9182L161.81 27.5396L160.519 27.1668C160.42 27.3962 159.579 29.3578 159.492 29.5872C159.227 30.264 159.012 30.935 158.843 31.5946C158.619 32.4721 158.507 33.2865 158.507 34.0379C158.507 36.3722 159.211 38.1789 160.618 39.4694C161.497 40.2781 162.642 40.8345 164.05 41.1384C164.895 41.3162 165.834 41.408 166.87 41.408C167.144 41.408 167.408 41.3965 167.666 41.3851C167.774 41.3793 167.879 41.3736 167.985 41.3621C168.124 41.3564 168.262 41.3449 168.396 41.3277C168.444 41.322 169.471 41.1212 170.553 41.4137C174.296 42.2683 178.015 42.7042 181.625 42.7042C185.27 42.7042 188.677 42.2626 191.75 41.3851C198.388 39.4981 202.707 35.793 203.911 30.9637C205.098 26.209 203.1 20.9954 198.285 16.2694ZM159.663 10.5167C159.663 14.6749 163.044 18.0589 167.201 18.0589C171.358 18.0589 174.739 14.6749 174.739 10.5167C174.739 6.36422 171.358 2.98027 167.201 2.98027C163.044 2.98027 159.663 6.36422 159.663 10.5167ZM157.218 8.10781C157.301 7.58015 156.888 7.52854 156.628 7.6031C150.745 9.27786 146.947 12.4381 145.932 16.5103C145.89 16.6766 145.855 16.8429 145.823 17.015C145.815 17.0551 145.807 17.0953 145.8 17.1412C145.772 17.3018 145.747 17.4624 145.728 17.6287C145.726 17.6344 145.725 17.6402 145.724 17.6517C145.704 17.8237 145.69 18.0015 145.68 18.1736C145.678 18.208 145.677 18.2424 145.675 18.2768C145.666 18.4489 145.662 18.6267 145.663 18.7988V18.8045C145.665 18.9937 145.673 19.1773 145.685 19.3665C145.687 19.3837 145.688 19.401 145.69 19.4239C145.847 21.569 146.716 23.7943 148.252 25.991C148.252 25.991 148.252 25.9911 148.252 25.9968C149.054 27.1439 150.035 28.2795 151.194 29.3921C151.37 29.5642 151.553 29.7306 151.736 29.8969V16.04C151.736 14.9617 152.283 13.958 153.19 13.3787L154.962 12.5356V34.5082H151.736V33.797C151.736 33.0916 151.426 32.4262 150.895 31.9674C150.495 31.6175 150.109 31.2676 149.736 30.912C147.939 29.1799 146.522 27.3848 145.499 25.5666C145.492 25.5552 145.486 25.5437 145.48 25.5322C145.324 25.2569 145.178 24.9759 145.04 24.6948C145.032 24.6834 145.025 24.6662 145.016 24.649C144.881 24.3736 144.754 24.0926 144.638 23.8173C144.632 23.8001 144.625 23.7828 144.62 23.7714C144.502 23.4903 144.394 23.2093 144.295 22.9225C144.294 22.9168 144.292 22.9111 144.29 22.9053C144.09 22.3318 143.931 21.7583 143.813 21.179C143.811 21.1733 143.809 21.1675 143.808 21.156C143.752 20.8865 143.707 20.6111 143.67 20.3416C143.666 20.3129 143.662 20.29 143.658 20.2613C143.624 20.0032 143.6 19.7393 143.584 19.4813C143.581 19.4411 143.579 19.4067 143.577 19.3723C143.563 19.1199 143.557 18.8618 143.56 18.6094C143.56 18.5693 143.561 18.5349 143.562 18.4947C143.567 18.2424 143.58 17.9901 143.602 17.7377C143.605 17.7033 143.609 17.6688 143.612 17.6344C143.638 17.3763 143.67 17.1183 143.713 16.8659C143.716 16.843 143.721 16.82 143.725 16.7971C143.771 16.5275 143.826 16.2636 143.892 15.9998C145.096 11.1705 149.414 7.4712 156.052 5.57849C156.456 5.46378 156.865 5.3605 157.281 5.25727C157.295 5.25727 157.309 5.25155 157.323 5.25155C157.729 5.15405 158.139 5.06801 158.554 4.98198H158.555L158.709 4.75256C159.009 4.30519 159.348 3.88076 159.722 3.49075C159.863 3.33589 160.009 3.19249 160.16 3.04911C160.164 3.04337 160.168 3.04336 160.173 3.03762C160.621 2.61893 161.107 2.23469 161.625 1.8963C161.649 1.88483 161.674 1.86763 161.699 1.85043C161.851 1.75292 162.007 1.66113 162.164 1.56937C170.111 -2.96166 184.495 3.62841 187.341 4.9361L187.438 4.98198V7.30484L187.162 7.17294C184.236 5.76775 181.087 4.64357 177.801 3.8234C177.402 3.72016 177.004 3.63416 176.606 3.54239C176.435 3.50224 176.264 3.46783 176.094 3.42768C175.939 3.39901 175.784 3.36456 175.629 3.33588C175.175 3.24411 174.722 3.15808 174.269 3.07779C174.611 3.39897 174.931 3.74887 175.226 4.11594C175.453 4.40845 175.666 4.70665 175.862 5.01637L176.038 5.29171C176.415 5.36628 176.792 5.44653 177.168 5.53256C177.549 5.61859 177.929 5.70464 178.31 5.80214C178.695 5.89964 179.077 5.99715 179.458 6.10039C179.6 6.14054 179.74 6.18067 179.881 6.22082C180.119 6.28964 180.356 6.3585 180.591 6.42733C180.754 6.47321 180.915 6.52481 181.076 6.57643C181.292 6.63951 181.507 6.70834 181.72 6.77717C181.874 6.82305 182.026 6.87471 182.179 6.92632C182.327 6.97794 182.476 7.0238 182.623 7.07542C182.623 7.07542 182.622 7.07542 182.622 7.07542C184.287 7.64897 185.898 8.29132 187.438 9.00252V11.3312C185.675 10.4708 183.806 9.70229 181.856 9.03697C181.645 8.96814 181.433 8.89357 181.219 8.82475C181.054 8.77312 180.888 8.7215 180.721 8.66988C180.516 8.60105 180.31 8.53799 180.103 8.4749C179.894 8.41181 179.683 8.35445 179.472 8.29136C179.305 8.24547 179.138 8.19386 178.971 8.14797C178.583 8.04473 178.193 7.94151 177.801 7.844C177.556 7.78091 177.312 7.72929 177.069 7.67194C177.114 7.83253 177.156 7.98738 177.194 8.14797C177.194 8.14797 177.194 8.14795 177.194 8.15368C177.232 8.30854 177.266 8.47489 177.297 8.63549C177.297 8.63549 177.297 8.6412 177.297 8.6412C177.328 8.80179 177.354 8.96812 177.377 9.12872C177.377 9.13445 177.377 9.13448 177.377 9.13448C177.399 9.30081 177.417 9.46709 177.432 9.63343C177.725 9.70225 178.017 9.77111 178.31 9.83994C181.457 10.6257 184.495 11.6868 187.341 12.9944L187.438 13.0403V15.3689L187.162 15.237C186.806 15.0649 186.446 14.8986 186.083 14.7323C185.963 14.6807 185.84 14.629 185.719 14.5774C185.475 14.4684 185.232 14.3595 184.985 14.2563C184.838 14.1989 184.69 14.1415 184.542 14.0784C184.318 13.9867 184.094 13.8949 183.869 13.8089C183.709 13.7458 183.548 13.6884 183.387 13.6254C183.17 13.5451 182.954 13.4647 182.735 13.3844C182.568 13.3214 182.4 13.264 182.232 13.2067C182.017 13.1321 181.802 13.0575 181.586 12.983C181.413 12.9256 181.239 12.874 181.065 12.8166C180.851 12.7478 180.637 12.679 180.421 12.6102C180.243 12.5585 180.065 12.5069 179.886 12.4553C179.672 12.3922 179.457 12.3291 179.242 12.266C179.06 12.2144 178.879 12.1686 178.696 12.1169C178.555 12.0825 178.412 12.0423 178.268 12.0079C177.549 11.8588 177.327 12.3464 177.246 12.6618C177.088 13.4017 176.848 14.1186 176.537 14.7896C176.537 14.7954 176.536 14.7954 176.536 14.7954C176.478 14.9215 176.418 15.0477 176.354 15.1682C176.349 15.1796 176.345 15.1854 176.342 15.1968C176.279 15.3173 176.213 15.4378 176.146 15.5582C176.145 15.564 176.142 15.5639 176.141 15.5696C175.797 16.1719 175.395 16.7397 174.94 17.2616C174.923 17.2788 174.906 17.3018 174.888 17.319C174.813 17.405 174.736 17.4853 174.659 17.5713C174.632 17.6 174.605 17.6287 174.578 17.6517C174.504 17.732 174.427 17.8065 174.35 17.8811C174.319 17.9155 174.287 17.9442 174.255 17.9728C174.178 18.0474 174.102 18.1162 174.023 18.1908C173.991 18.2194 173.957 18.2481 173.924 18.2768C173.843 18.3456 173.763 18.4145 173.679 18.4833C173.661 18.4948 173.641 18.512 173.622 18.5292C173.446 18.6668 173.266 18.8045 173.081 18.9307C173.048 18.9536 173.016 18.9823 172.983 19.0052C172.91 19.0511 172.835 19.097 172.761 19.1486C172.705 19.183 172.649 19.2232 172.592 19.2576C172.521 19.2978 172.451 19.3436 172.38 19.3837C172.317 19.4181 172.252 19.4583 172.188 19.4927C172.119 19.5329 172.05 19.5673 171.98 19.6074C171.911 19.6419 171.842 19.6763 171.772 19.7107C171.704 19.7451 171.635 19.7795 171.566 19.8139C171.491 19.8483 171.415 19.8828 171.338 19.9172C171.273 19.9459 171.208 19.9745 171.142 20.0032C171.051 20.0434 170.96 20.0777 170.867 20.1122C170.814 20.1294 170.761 20.1523 170.707 20.1753C170.563 20.2269 170.417 20.2728 170.27 20.3187C170.224 20.3359 170.177 20.3473 170.13 20.3645C170.025 20.3932 169.919 20.4219 169.813 20.4506C169.752 20.4678 169.693 20.485 169.633 20.4964C169.537 20.5194 169.441 20.5423 169.345 20.5653C169.281 20.5767 169.217 20.5882 169.152 20.5997C169.058 20.6226 168.963 20.6398 168.867 20.6513C168.802 20.6628 168.737 20.6742 168.672 20.6857C168.574 20.6972 168.475 20.7087 168.375 20.7201C168.312 20.7259 168.25 20.7373 168.187 20.7431C168.078 20.7545 167.967 20.7603 167.858 20.766C167.804 20.7718 167.751 20.7775 167.696 20.7775C167.532 20.7832 167.368 20.7889 167.201 20.7889C161.537 20.7889 156.929 16.1834 156.929 10.5167C156.929 10.2758 156.94 10.0292 156.958 9.79406C156.961 9.73671 156.965 9.69078 156.97 9.63343C156.99 9.39254 157.017 9.15738 157.055 8.91649L157.095 8.68707C157.13 8.49207 157.17 8.30282 157.218 8.10781ZM195.753 13.0862H193.763C192.526 13.0862 191.908 12.7937 191.908 12.203C191.908 12.0022 192.002 11.8359 192.19 11.6925C192.379 11.5491 192.625 11.4745 192.93 11.4745C193.485 11.4745 193.978 11.6925 194.409 12.1226L195.7 10.3217C195.341 9.94314 194.919 9.6449 194.436 9.43268C193.951 9.21474 193.45 9.11152 192.93 9.11152C192.07 9.11152 191.365 9.35813 190.819 9.84565C190.272 10.3389 189.999 10.9641 189.999 11.7154C189.999 12.2718 190.178 12.7478 190.537 13.1435C190.537 13.1435 190.638 13.2755 190.51 13.2755C190.382 13.2755 189.38 13.2755 189.38 13.2755V15.4549H195.753V13.0862ZM192.622 36.0969C193.567 35.7528 194.194 34.8523 194.194 33.8486V17.6057H190.967V36.7106L192.622 36.0969ZM154.855 39.716H156.844V42.079H150.472V39.8996C150.472 39.8996 151.469 39.8996 151.601 39.8996C151.732 39.8996 151.628 39.7676 151.628 39.7676C151.269 39.3719 151.09 38.8958 151.09 38.3395C151.09 37.5881 151.363 36.9687 151.91 36.4755C152.457 35.9822 153.161 35.7356 154.021 35.7356C154.541 35.7356 155.043 35.8388 155.527 36.0568C156.011 36.269 156.432 36.5672 156.791 36.9458L155.5 38.7467C155.07 38.3166 154.576 38.0986 154.021 38.0986C153.716 38.0986 153.47 38.1732 153.282 38.3166C153.094 38.46 152.999 38.6263 152.999 38.827C152.999 39.4178 153.618 39.716 154.855 39.716Z" fill="#DCE5EC"/>
</svg>
