<svg width="30" height="30" viewBox="0 0 30 30" fill="none" xmlns="http://www.w3.org/2000/svg">
<circle cx="15" cy="15" r="15" fill="#DCE5EC"/>
<path d="M13.3337 18.5L17.6587 16L13.3337 13.5V18.5ZM22.967 11.975C23.0753 12.3667 23.1503 12.8917 23.2003 13.5583C23.2587 14.225 23.2837 14.8 23.2837 15.3L23.3337 16C23.3337 17.825 23.2003 19.1667 22.967 20.025C22.7587 20.775 22.2753 21.2583 21.5253 21.4667C21.1337 21.575 20.417 21.65 19.317 21.7C18.2337 21.7583 17.242 21.7833 16.3253 21.7833L15.0003 21.8333C11.5087 21.8333 9.33366 21.7 8.47533 21.4667C7.72533 21.2583 7.24199 20.775 7.03366 20.025C6.92533 19.6333 6.85033 19.1083 6.80033 18.4417C6.74199 17.775 6.71699 17.2 6.71699 16.7L6.66699 16C6.66699 14.175 6.80033 12.8333 7.03366 11.975C7.24199 11.225 7.72533 10.7417 8.47533 10.5333C8.86699 10.425 9.58366 10.35 10.6837 10.3C11.767 10.2417 12.7587 10.2167 13.6753 10.2167L15.0003 10.1667C18.492 10.1667 20.667 10.3 21.5253 10.5333C22.2753 10.7417 22.7587 11.225 22.967 11.975Z" fill="#A91717"/>
</svg>
